<mxfile compressed="false" pages="4" type="device">
    <diagram id="62fff52b-3eeb-45d5-b8ee-ecc7b3bbe668" name="Complete">
        <mxGraphModel arrows="1" connect="1" fold="1" grid="1" gridSize="10" guides="1" math="0" page="1" pageScale="1" shadow="0" tooltips="1">
            <root>
                <mxCell id="0"/>
                <mxCell id="1" parent="0"/>
                <mxCell id="d0d8b958-d503-4f97-924d-b1ac0de5a7fb" parent="0" value="Foreground"/>
                <mxCell id="d38f64e9-0552-4fd8-9cc5-93e8d689787a" parent="d0d8b958-d503-4f97-924d-b1ac0de5a7fb" style="rounded=0;whiteSpace=wrap;html=1;fillColor=#253F8E;fontSize=9;fontColor=#FFFFFF;align=left;strokeColor=none" value="&lt;p style=&quot;line-height: 100%;&quot;&gt;Interrupt&lt;br&gt;CollectorIfc&lt;br&gt;&lt;i&gt;Interface&lt;/i&gt;&lt;/p&gt;" vertex="1">
                    <mxGeometry as="geometry" height="1330.0" width="560.0" x="10.0" y="10.0"/>
                </mxCell>
                <mxCell id="f347ffb4-ec9b-4541-9c6a-7e2ade98371e" parent="d0d8b958-d503-4f97-924d-b1ac0de5a7fb" style="rounded=0;whiteSpace=wrap;html=1;fillColor=#00CCCC;fontSize=9;fontColor=#000000;align=left;strokeColor=none" value="&lt;p style=&quot;line-height: 100%;&quot;&gt;Interrupt&lt;br&gt;CollectorBlk&lt;br&gt;&lt;i&gt;Block&lt;/i&gt;&lt;/p&gt;" vertex="1">
                    <mxGeometry as="geometry" height="1310.0" width="470.0" x="90.0" y="20.0"/>
                </mxCell>
                <mxCell id="3a14d560-2131-4b5b-94ae-d34c0f897e46" parent="d0d8b958-d503-4f97-924d-b1ac0de5a7fb" style="rounded=0;whiteSpace=wrap;html=1;fillColor=#F58828;fontSize=9;fontColor=#000000;align=left;strokeColor=none" value="&lt;p style=&quot;line-height: 100%;&quot;&gt;&lt;br&gt;InterruptMaskReg&lt;br&gt;&lt;i&gt;Register&lt;/i&gt;&lt;/p&gt;" vertex="1">
                    <mxGeometry as="geometry" height="290.0" width="380.0" x="170.0" y="30.0"/>
                </mxCell>
                <mxCell id="379c2bec-aab7-438b-9161-aba3ed4d93c7" parent="d0d8b958-d503-4f97-924d-b1ac0de5a7fb" style="rounded=0;whiteSpace=wrap;html=1;fillColor=#F19C99;fontSize=9;fontColor=#000000;align=left;strokeColor=none" value="&lt;p style=&quot;line-height: 100%;&quot;&gt;Mask0&lt;br&gt;&lt;i&gt;Enum&lt;/i&gt;&lt;/p&gt;" vertex="1">
                    <mxGeometry as="geometry" height="60.0" width="290.0" x="250.0" y="40.0"/>
                </mxCell>
                <mxCell id="745de2cf-ca65-41a6-aec2-eeaf95a97e81" parent="d0d8b958-d503-4f97-924d-b1ac0de5a7fb" style="fillColor=#FFFFFF;arrowSize=0.05;shape=doubleArrow;rounded=0;whiteSpace=wrap;html=1;fontSize=9;arrowWidth=1" value="&lt;p style=&quot;line-height: 100%;&quot;&gt;InterruptDisabled, &lt;br&gt;InterruptEnabled&lt;br&gt;&lt;i&gt;Values&lt;/i&gt;&lt;/p&gt;" vertex="1">
                    <mxGeometry as="geometry" height="40.0" width="160.0" x="330.0" y="50.0"/>
                </mxCell>
                <mxCell id="b06ed864-05d7-4af4-bcba-8befd33822db" parent="d0d8b958-d503-4f97-924d-b1ac0de5a7fb" style="fillColor=#FFFFFF;rounded=0;whiteSpace=wrap;html=1;fontSize=9;arrowWidth=1" value="&lt;p style=&quot;line-height: 100%;&quot;&gt;Reg&lt;/p&gt;" vertex="1">
                    <mxGeometry as="geometry" height="40.0" width="20.0" x="490.0" y="50.0"/>
                </mxCell>
                <mxCell id="a9a512c0-4d43-43c1-abe8-9f54ed536d58" parent="d0d8b958-d503-4f97-924d-b1ac0de5a7fb" style="fillColor=#FFFFFF;arrowSize=0.5;shape=singleArrow;rounded=0;whiteSpace=wrap;html=1;fontSize=9;arrowWidth=1" vertex="1">
                    <mxGeometry as="geometry" height="40.0" width="20.0" x="510.0" y="50.0"/>
                </mxCell>
                <mxCell id="cdd75188-b979-458e-9326-059ab87d3f31" parent="d0d8b958-d503-4f97-924d-b1ac0de5a7fb" style="rounded=0;whiteSpace=wrap;html=1;fillColor=#F19C99;fontSize=9;fontColor=#000000;align=left;strokeColor=none" value="&lt;p style=&quot;line-height: 100%;&quot;&gt;Mask1&lt;br&gt;&lt;i&gt;Enum&lt;/i&gt;&lt;/p&gt;" vertex="1">
                    <mxGeometry as="geometry" height="60.0" width="290.0" x="250.0" y="110.0"/>
                </mxCell>
                <mxCell id="196f9cee-35e5-4eaf-8f31-495662e96982" parent="d0d8b958-d503-4f97-924d-b1ac0de5a7fb" style="fillColor=#FFFFFF;arrowSize=0.05;shape=doubleArrow;rounded=0;whiteSpace=wrap;html=1;fontSize=9;arrowWidth=1" value="&lt;p style=&quot;line-height: 100%;&quot;&gt;InterruptDisabled, &lt;br&gt;InterruptEnabled&lt;br&gt;&lt;i&gt;Values&lt;/i&gt;&lt;/p&gt;" vertex="1">
                    <mxGeometry as="geometry" height="40.0" width="160.0" x="330.0" y="120.0"/>
                </mxCell>
                <mxCell id="34e72037-ea87-4da2-80e3-5a82ab605dcf" parent="d0d8b958-d503-4f97-924d-b1ac0de5a7fb" style="fillColor=#FFFFFF;rounded=0;whiteSpace=wrap;html=1;fontSize=9;arrowWidth=1" value="&lt;p style=&quot;line-height: 100%;&quot;&gt;Reg&lt;/p&gt;" vertex="1">
                    <mxGeometry as="geometry" height="40.0" width="20.0" x="490.0" y="120.0"/>
                </mxCell>
                <mxCell id="7415d365-088a-4649-a869-f39cf5d3476c" parent="d0d8b958-d503-4f97-924d-b1ac0de5a7fb" style="fillColor=#FFFFFF;arrowSize=0.5;shape=singleArrow;rounded=0;whiteSpace=wrap;html=1;fontSize=9;arrowWidth=1" vertex="1">
                    <mxGeometry as="geometry" height="40.0" width="20.0" x="510.0" y="120.0"/>
                </mxCell>
                <mxCell id="0e2e0396-92c4-41b6-b31f-d132f0b0758b" parent="d0d8b958-d503-4f97-924d-b1ac0de5a7fb" style="rounded=0;whiteSpace=wrap;html=1;fillColor=#F19C99;fontSize=9;fontColor=#000000;align=left;strokeColor=none" value="&lt;p style=&quot;line-height: 100%;&quot;&gt;Mask2&lt;br&gt;&lt;i&gt;Enum&lt;/i&gt;&lt;/p&gt;" vertex="1">
                    <mxGeometry as="geometry" height="60.0" width="290.0" x="250.0" y="180.0"/>
                </mxCell>
                <mxCell id="82030600-376c-4e3b-a9cf-77731324b891" parent="d0d8b958-d503-4f97-924d-b1ac0de5a7fb" style="fillColor=#FFFFFF;arrowSize=0.05;shape=doubleArrow;rounded=0;whiteSpace=wrap;html=1;fontSize=9;arrowWidth=1" value="&lt;p style=&quot;line-height: 100%;&quot;&gt;InterruptDisabled, &lt;br&gt;InterruptEnabled&lt;br&gt;&lt;i&gt;Values&lt;/i&gt;&lt;/p&gt;" vertex="1">
                    <mxGeometry as="geometry" height="40.0" width="160.0" x="330.0" y="190.0"/>
                </mxCell>
                <mxCell id="e6855809-b28e-4c58-b52d-2397778e72bf" parent="d0d8b958-d503-4f97-924d-b1ac0de5a7fb" style="fillColor=#FFFFFF;rounded=0;whiteSpace=wrap;html=1;fontSize=9;arrowWidth=1" value="&lt;p style=&quot;line-height: 100%;&quot;&gt;Reg&lt;/p&gt;" vertex="1">
                    <mxGeometry as="geometry" height="40.0" width="20.0" x="490.0" y="190.0"/>
                </mxCell>
                <mxCell id="bd89850d-2bd2-47da-9981-5b4cfec9a9e0" parent="d0d8b958-d503-4f97-924d-b1ac0de5a7fb" style="fillColor=#FFFFFF;arrowSize=0.5;shape=singleArrow;rounded=0;whiteSpace=wrap;html=1;fontSize=9;arrowWidth=1" vertex="1">
                    <mxGeometry as="geometry" height="40.0" width="20.0" x="510.0" y="190.0"/>
                </mxCell>
                <mxCell id="70d7df20-4d08-44b6-85c3-8b0bd9beda32" parent="d0d8b958-d503-4f97-924d-b1ac0de5a7fb" style="rounded=0;whiteSpace=wrap;html=1;fillColor=#F19C99;fontSize=9;fontColor=#000000;align=left;strokeColor=none" value="&lt;p style=&quot;line-height: 100%;&quot;&gt;Mask3&lt;br&gt;&lt;i&gt;Enum&lt;/i&gt;&lt;/p&gt;" vertex="1">
                    <mxGeometry as="geometry" height="60.0" width="290.0" x="250.0" y="250.0"/>
                </mxCell>
                <mxCell id="58b7b6fd-2e69-48b3-a856-b6613c6e1d55" parent="d0d8b958-d503-4f97-924d-b1ac0de5a7fb" style="fillColor=#FFFFFF;arrowSize=0.05;shape=doubleArrow;rounded=0;whiteSpace=wrap;html=1;fontSize=9;arrowWidth=1" value="&lt;p style=&quot;line-height: 100%;&quot;&gt;InterruptDisabled, &lt;br&gt;InterruptEnabled&lt;br&gt;&lt;i&gt;Values&lt;/i&gt;&lt;/p&gt;" vertex="1">
                    <mxGeometry as="geometry" height="40.0" width="160.0" x="330.0" y="260.0"/>
                </mxCell>
                <mxCell id="af3d48b4-ff9c-4007-9e1a-b6cb0ee7b591" parent="d0d8b958-d503-4f97-924d-b1ac0de5a7fb" style="fillColor=#FFFFFF;rounded=0;whiteSpace=wrap;html=1;fontSize=9;arrowWidth=1" value="&lt;p style=&quot;line-height: 100%;&quot;&gt;Reg&lt;/p&gt;" vertex="1">
                    <mxGeometry as="geometry" height="40.0" width="20.0" x="490.0" y="260.0"/>
                </mxCell>
                <mxCell id="f1bb77de-f059-41dd-99a2-23958cac3845" parent="d0d8b958-d503-4f97-924d-b1ac0de5a7fb" style="fillColor=#FFFFFF;arrowSize=0.5;shape=singleArrow;rounded=0;whiteSpace=wrap;html=1;fontSize=9;arrowWidth=1" vertex="1">
                    <mxGeometry as="geometry" height="40.0" width="20.0" x="510.0" y="260.0"/>
                </mxCell>
                <mxCell id="358271db-cd72-4d3a-8877-1a0d144bfb95" parent="d0d8b958-d503-4f97-924d-b1ac0de5a7fb" style="rounded=0;whiteSpace=wrap;html=1;fillColor=#F58828;fontSize=9;fontColor=#000000;align=left;strokeColor=none" value="&lt;p style=&quot;line-height: 100%;&quot;&gt;Interrupt&lt;br&gt;RequestReg&lt;br&gt;&lt;i&gt;Register&lt;/i&gt;&lt;/p&gt;" vertex="1">
                    <mxGeometry as="geometry" height="490.0" width="380.0" x="170.0" y="330.0"/>
                </mxCell>
                <mxCell id="6977fc1e-d424-44b8-9c2b-b3f7cf642b37" parent="d0d8b958-d503-4f97-924d-b1ac0de5a7fb" style="rounded=0;whiteSpace=wrap;html=1;fillColor=#F19C99;fontSize=9;fontColor=#000000;align=left;strokeColor=none" value="&lt;p style=&quot;line-height: 100%;&quot;&gt;Request0&lt;br&gt;&lt;i&gt;Enum&lt;/i&gt;&lt;/p&gt;" vertex="1">
                    <mxGeometry as="geometry" height="100.0" width="290.0" x="250.0" y="340.0"/>
                </mxCell>
                <mxCell id="c9357676-79a2-4b6e-96e8-16947ace9025" parent="d0d8b958-d503-4f97-924d-b1ac0de5a7fb" style="fillColor=#FFFFFF;arrowSize=0.05;shape=singleArrow;direction=west;rounded=0;whiteSpace=wrap;html=1;fontSize=9;arrowWidth=1" value="&lt;p style=&quot;line-height: 100%;&quot;&gt;NotPending, Pending&lt;br&gt;&lt;i&gt;Values&lt;/i&gt;&lt;/p&gt;" vertex="1">
                    <mxGeometry as="geometry" height="40.0" width="200.0" x="330.0" y="350.0"/>
                </mxCell>
                <mxCell id="be103afc-c302-4e62-8a74-27b6945fdab5" parent="d0d8b958-d503-4f97-924d-b1ac0de5a7fb" style="fillColor=#FFFFFF;arrowSize=0.05;shape=singleArrow;rounded=0;whiteSpace=wrap;html=1;fontSize=9;arrowWidth=1" value="&lt;p style=&quot;line-height: 100%;&quot;&gt;NotConfirmed, Confirmed&lt;br&gt;&lt;i&gt;Values&lt;/i&gt;&lt;/p&gt;" vertex="1">
                    <mxGeometry as="geometry" height="40.0" width="200.0" x="330.0" y="390.0"/>
                </mxCell>
                <mxCell id="f35c76fc-cd01-41aa-98d9-6d102219dbc3" parent="d0d8b958-d503-4f97-924d-b1ac0de5a7fb" style="rounded=0;whiteSpace=wrap;html=1;fillColor=#F19C99;fontSize=9;fontColor=#000000;align=left;strokeColor=none" value="&lt;p style=&quot;line-height: 100%;&quot;&gt;Request1&lt;br&gt;&lt;i&gt;Enum&lt;/i&gt;&lt;/p&gt;" vertex="1">
                    <mxGeometry as="geometry" height="100.0" width="290.0" x="250.0" y="450.0"/>
                </mxCell>
                <mxCell id="a97f7c5e-c02e-4695-977b-7246c2f0f307" parent="d0d8b958-d503-4f97-924d-b1ac0de5a7fb" style="fillColor=#FFFFFF;arrowSize=0.05;shape=singleArrow;direction=west;rounded=0;whiteSpace=wrap;html=1;fontSize=9;arrowWidth=1" value="&lt;p style=&quot;line-height: 100%;&quot;&gt;NotPending, Pending&lt;br&gt;&lt;i&gt;Values&lt;/i&gt;&lt;/p&gt;" vertex="1">
                    <mxGeometry as="geometry" height="40.0" width="200.0" x="330.0" y="460.0"/>
                </mxCell>
                <mxCell id="73ba1cdc-1af2-4b50-8deb-2dcbe318dcb9" parent="d0d8b958-d503-4f97-924d-b1ac0de5a7fb" style="fillColor=#FFFFFF;arrowSize=0.05;shape=singleArrow;rounded=0;whiteSpace=wrap;html=1;fontSize=9;arrowWidth=1" value="&lt;p style=&quot;line-height: 100%;&quot;&gt;NotConfirmed, Confirmed&lt;br&gt;&lt;i&gt;Values&lt;/i&gt;&lt;/p&gt;" vertex="1">
                    <mxGeometry as="geometry" height="40.0" width="200.0" x="330.0" y="500.0"/>
                </mxCell>
                <mxCell id="75cb2c82-3d2e-4c32-a02c-e026794831eb" parent="d0d8b958-d503-4f97-924d-b1ac0de5a7fb" style="rounded=0;whiteSpace=wrap;html=1;fillColor=#F19C99;fontSize=9;fontColor=#000000;align=left;strokeColor=none" value="&lt;p style=&quot;line-height: 100%;&quot;&gt;Request2&lt;br&gt;&lt;i&gt;Enum&lt;/i&gt;&lt;/p&gt;" vertex="1">
                    <mxGeometry as="geometry" height="100.0" width="290.0" x="250.0" y="560.0"/>
                </mxCell>
                <mxCell id="69b1cf9e-72b9-49e7-921d-d092d397c22d" parent="d0d8b958-d503-4f97-924d-b1ac0de5a7fb" style="fillColor=#FFFFFF;arrowSize=0.05;shape=singleArrow;direction=west;rounded=0;whiteSpace=wrap;html=1;fontSize=9;arrowWidth=1" value="&lt;p style=&quot;line-height: 100%;&quot;&gt;NotPending, Pending&lt;br&gt;&lt;i&gt;Values&lt;/i&gt;&lt;/p&gt;" vertex="1">
                    <mxGeometry as="geometry" height="40.0" width="200.0" x="330.0" y="570.0"/>
                </mxCell>
                <mxCell id="ae943c5d-322a-4fdc-adae-3e051101f167" parent="d0d8b958-d503-4f97-924d-b1ac0de5a7fb" style="fillColor=#FFFFFF;arrowSize=0.05;shape=singleArrow;rounded=0;whiteSpace=wrap;html=1;fontSize=9;arrowWidth=1" value="&lt;p style=&quot;line-height: 100%;&quot;&gt;NotConfirmed, Confirmed&lt;br&gt;&lt;i&gt;Values&lt;/i&gt;&lt;/p&gt;" vertex="1">
                    <mxGeometry as="geometry" height="40.0" width="200.0" x="330.0" y="610.0"/>
                </mxCell>
                <mxCell id="08020090-7033-4295-869f-6028cd9dad21" parent="d0d8b958-d503-4f97-924d-b1ac0de5a7fb" style="rounded=0;whiteSpace=wrap;html=1;fillColor=#F19C99;fontSize=9;fontColor=#000000;align=left;strokeColor=none" value="&lt;p style=&quot;line-height: 100%;&quot;&gt;Request3&lt;br&gt;&lt;i&gt;Enum&lt;/i&gt;&lt;/p&gt;" vertex="1">
                    <mxGeometry as="geometry" height="100.0" width="290.0" x="250.0" y="670.0"/>
                </mxCell>
                <mxCell id="2d4b28fb-90d2-4053-b321-62eaad74b040" parent="d0d8b958-d503-4f97-924d-b1ac0de5a7fb" style="fillColor=#FFFFFF;arrowSize=0.05;shape=singleArrow;direction=west;rounded=0;whiteSpace=wrap;html=1;fontSize=9;arrowWidth=1" value="&lt;p style=&quot;line-height: 100%;&quot;&gt;NotPending, Pending&lt;br&gt;&lt;i&gt;Values&lt;/i&gt;&lt;/p&gt;" vertex="1">
                    <mxGeometry as="geometry" height="40.0" width="200.0" x="330.0" y="680.0"/>
                </mxCell>
                <mxCell id="80ccbde4-79c3-41e4-929c-a460ab2190f5" parent="d0d8b958-d503-4f97-924d-b1ac0de5a7fb" style="fillColor=#FFFFFF;arrowSize=0.05;shape=singleArrow;rounded=0;whiteSpace=wrap;html=1;fontSize=9;arrowWidth=1" value="&lt;p style=&quot;line-height: 100%;&quot;&gt;NotConfirmed, Confirmed&lt;br&gt;&lt;i&gt;Values&lt;/i&gt;&lt;/p&gt;" vertex="1">
                    <mxGeometry as="geometry" height="40.0" width="200.0" x="330.0" y="720.0"/>
                </mxCell>
                <mxCell id="ffd62de2-d46c-4ba4-9e5a-082f65cd5023" parent="d0d8b958-d503-4f97-924d-b1ac0de5a7fb" style="fillColor=#CCCCCC;arrowSize=0.05;shape=singleArrow;rounded=0;whiteSpace=wrap;html=1;fontSize=9;arrowWidth=1" value="&lt;p style=&quot;line-height: 100%;&quot;&gt;WTrans&lt;br&gt;&lt;i&gt;Pulse&lt;/i&gt;&lt;/p&gt;" vertex="1">
                    <mxGeometry as="geometry" height="30.0" width="200.0" x="330.0" y="780.0"/>
                </mxCell>
                <mxCell id="fbcf9e2f-b610-437d-aff9-01735981783d" parent="d0d8b958-d503-4f97-924d-b1ac0de5a7fb" style="rounded=0;whiteSpace=wrap;html=1;fillColor=#F58828;fontSize=9;fontColor=#000000;align=left;strokeColor=none" value="&lt;p style=&quot;line-height: 100%;&quot;&gt;Interrupt&lt;br&gt;ServiceReg&lt;br&gt;&lt;i&gt;Register&lt;/i&gt;&lt;/p&gt;" vertex="1">
                    <mxGeometry as="geometry" height="490.0" width="380.0" x="170.0" y="830.0"/>
                </mxCell>
                <mxCell id="3210d9dd-6235-4bf2-a057-47f7e0ed08b6" parent="d0d8b958-d503-4f97-924d-b1ac0de5a7fb" style="rounded=0;whiteSpace=wrap;html=1;fillColor=#F19C99;fontSize=9;fontColor=#000000;align=left;strokeColor=none" value="&lt;p style=&quot;line-height: 100%;&quot;&gt;Service0&lt;br&gt;&lt;i&gt;Enum&lt;/i&gt;&lt;/p&gt;" vertex="1">
                    <mxGeometry as="geometry" height="100.0" width="290.0" x="250.0" y="840.0"/>
                </mxCell>
                <mxCell id="b8ca83af-42f0-43fc-8e40-2234d8f0e77d" parent="d0d8b958-d503-4f97-924d-b1ac0de5a7fb" style="fillColor=#FFFFFF;arrowSize=0.05;shape=singleArrow;direction=west;rounded=0;whiteSpace=wrap;html=1;fontSize=9;arrowWidth=1" value="&lt;p style=&quot;line-height: 100%;&quot;&gt;Ended, InProcess&lt;br&gt;&lt;i&gt;Values&lt;/i&gt;&lt;/p&gt;" vertex="1">
                    <mxGeometry as="geometry" height="40.0" width="200.0" x="330.0" y="850.0"/>
                </mxCell>
                <mxCell id="eaac14da-1f44-4f4e-b9b4-fbeb860d1fb1" parent="d0d8b958-d503-4f97-924d-b1ac0de5a7fb" style="fillColor=#FFFFFF;arrowSize=0.05;shape=singleArrow;rounded=0;whiteSpace=wrap;html=1;fontSize=9;arrowWidth=1" value="&lt;p style=&quot;line-height: 100%;&quot;&gt;NotConfirmed, Confirmed&lt;br&gt;&lt;i&gt;Values&lt;/i&gt;&lt;/p&gt;" vertex="1">
                    <mxGeometry as="geometry" height="40.0" width="200.0" x="330.0" y="890.0"/>
                </mxCell>
                <mxCell id="f3315903-957a-4ee3-bfe1-158e255ec2c0" parent="d0d8b958-d503-4f97-924d-b1ac0de5a7fb" style="rounded=0;whiteSpace=wrap;html=1;fillColor=#F19C99;fontSize=9;fontColor=#000000;align=left;strokeColor=none" value="&lt;p style=&quot;line-height: 100%;&quot;&gt;Service1&lt;br&gt;&lt;i&gt;Enum&lt;/i&gt;&lt;/p&gt;" vertex="1">
                    <mxGeometry as="geometry" height="100.0" width="290.0" x="250.0" y="950.0"/>
                </mxCell>
                <mxCell id="34d9ac58-1258-439b-9bde-004dfa3f4fa5" parent="d0d8b958-d503-4f97-924d-b1ac0de5a7fb" style="fillColor=#FFFFFF;arrowSize=0.05;shape=singleArrow;direction=west;rounded=0;whiteSpace=wrap;html=1;fontSize=9;arrowWidth=1" value="&lt;p style=&quot;line-height: 100%;&quot;&gt;Ended, InProcess&lt;br&gt;&lt;i&gt;Values&lt;/i&gt;&lt;/p&gt;" vertex="1">
                    <mxGeometry as="geometry" height="40.0" width="200.0" x="330.0" y="960.0"/>
                </mxCell>
                <mxCell id="8ff9711f-fd98-45c7-bcb5-c8628ea9489a" parent="d0d8b958-d503-4f97-924d-b1ac0de5a7fb" style="fillColor=#FFFFFF;arrowSize=0.05;shape=singleArrow;rounded=0;whiteSpace=wrap;html=1;fontSize=9;arrowWidth=1" value="&lt;p style=&quot;line-height: 100%;&quot;&gt;NotConfirmed, Confirmed&lt;br&gt;&lt;i&gt;Values&lt;/i&gt;&lt;/p&gt;" vertex="1">
                    <mxGeometry as="geometry" height="40.0" width="200.0" x="330.0" y="1000.0"/>
                </mxCell>
                <mxCell id="aabcffa3-5bfe-44a7-a4bd-6a8e0e54c075" parent="d0d8b958-d503-4f97-924d-b1ac0de5a7fb" style="rounded=0;whiteSpace=wrap;html=1;fillColor=#F19C99;fontSize=9;fontColor=#000000;align=left;strokeColor=none" value="&lt;p style=&quot;line-height: 100%;&quot;&gt;Service2&lt;br&gt;&lt;i&gt;Enum&lt;/i&gt;&lt;/p&gt;" vertex="1">
                    <mxGeometry as="geometry" height="100.0" width="290.0" x="250.0" y="1060.0"/>
                </mxCell>
                <mxCell id="e2064471-b784-46c4-82d4-61fe983ed25f" parent="d0d8b958-d503-4f97-924d-b1ac0de5a7fb" style="fillColor=#FFFFFF;arrowSize=0.05;shape=singleArrow;direction=west;rounded=0;whiteSpace=wrap;html=1;fontSize=9;arrowWidth=1" value="&lt;p style=&quot;line-height: 100%;&quot;&gt;Ended, InProcess&lt;br&gt;&lt;i&gt;Values&lt;/i&gt;&lt;/p&gt;" vertex="1">
                    <mxGeometry as="geometry" height="40.0" width="200.0" x="330.0" y="1070.0"/>
                </mxCell>
                <mxCell id="ae84dcf2-8483-4c42-889c-41502191f47e" parent="d0d8b958-d503-4f97-924d-b1ac0de5a7fb" style="fillColor=#FFFFFF;arrowSize=0.05;shape=singleArrow;rounded=0;whiteSpace=wrap;html=1;fontSize=9;arrowWidth=1" value="&lt;p style=&quot;line-height: 100%;&quot;&gt;NotConfirmed, Confirmed&lt;br&gt;&lt;i&gt;Values&lt;/i&gt;&lt;/p&gt;" vertex="1">
                    <mxGeometry as="geometry" height="40.0" width="200.0" x="330.0" y="1110.0"/>
                </mxCell>
                <mxCell id="0289c48d-0e65-4b8b-b079-c81912aaab8b" parent="d0d8b958-d503-4f97-924d-b1ac0de5a7fb" style="rounded=0;whiteSpace=wrap;html=1;fillColor=#F19C99;fontSize=9;fontColor=#000000;align=left;strokeColor=none" value="&lt;p style=&quot;line-height: 100%;&quot;&gt;Service3&lt;br&gt;&lt;i&gt;Enum&lt;/i&gt;&lt;/p&gt;" vertex="1">
                    <mxGeometry as="geometry" height="100.0" width="290.0" x="250.0" y="1170.0"/>
                </mxCell>
                <mxCell id="794a9776-3266-4c89-9576-d6ad6e5627fa" parent="d0d8b958-d503-4f97-924d-b1ac0de5a7fb" style="fillColor=#FFFFFF;arrowSize=0.05;shape=singleArrow;direction=west;rounded=0;whiteSpace=wrap;html=1;fontSize=9;arrowWidth=1" value="&lt;p style=&quot;line-height: 100%;&quot;&gt;Ended, InProcess&lt;br&gt;&lt;i&gt;Values&lt;/i&gt;&lt;/p&gt;" vertex="1">
                    <mxGeometry as="geometry" height="40.0" width="200.0" x="330.0" y="1180.0"/>
                </mxCell>
                <mxCell id="a8c1103e-b2ec-4550-b1d5-4195de35cf9c" parent="d0d8b958-d503-4f97-924d-b1ac0de5a7fb" style="fillColor=#FFFFFF;arrowSize=0.05;shape=singleArrow;rounded=0;whiteSpace=wrap;html=1;fontSize=9;arrowWidth=1" value="&lt;p style=&quot;line-height: 100%;&quot;&gt;NotConfirmed, Confirmed&lt;br&gt;&lt;i&gt;Values&lt;/i&gt;&lt;/p&gt;" vertex="1">
                    <mxGeometry as="geometry" height="40.0" width="200.0" x="330.0" y="1220.0"/>
                </mxCell>
                <mxCell id="38cea3cd-9f49-4af8-aac7-56faf559b949" parent="d0d8b958-d503-4f97-924d-b1ac0de5a7fb" style="fillColor=#CCCCCC;arrowSize=0.05;shape=singleArrow;rounded=0;whiteSpace=wrap;html=1;fontSize=9;arrowWidth=1" value="&lt;p style=&quot;line-height: 100%;&quot;&gt;WTrans&lt;br&gt;&lt;i&gt;Pulse&lt;/i&gt;&lt;/p&gt;" vertex="1">
                    <mxGeometry as="geometry" height="30.0" width="200.0" x="330.0" y="1280.0"/>
                </mxCell>
                <mxCell id="f7faf32f-1c85-45ee-8886-979c1d5b6373" parent="d0d8b958-d503-4f97-924d-b1ac0de5a7fb" style="fillColor=none;verticalAlign=middle;labelBorderColor=none;fontSize=20;align=center;fontStyle=1;strokeColor=none;fontColor=#F58828;rounded=0;whiteSpace=wrap;html=1" value="&lt;p style=&quot;line-height: 100%;&quot;&gt;HxS&lt;/p&gt;" vertex="1">
                    <mxGeometry as="geometry" height="30.0" width="50.0" x="10.0" y="1310.0"/>
                </mxCell>
            </root>
        </mxGraphModel>
    </diagram>
    <diagram id="8ae1cc1b-904e-40e7-b9e0-ed121733f907" name="Slice0">
        <mxGraphModel arrows="1" connect="1" fold="1" grid="1" gridSize="10" guides="1" math="0" page="1" pageScale="1" shadow="0" tooltips="1">
            <root>
                <mxCell id="0"/>
                <mxCell id="1" parent="0"/>
                <mxCell id="21fd1ef3-2a6f-4081-a8e0-63668969abfd" parent="0" value="Foreground"/>
                <mxCell id="ce6bd2ce-908a-40f1-87de-cf44285a83b3" parent="21fd1ef3-2a6f-4081-a8e0-63668969abfd" style="shape=document;size=0.012048192771084338;rounded=0;whiteSpace=wrap;html=1;fillColor=#253F8E;fontSize=9;fontColor=#FFFFFF;align=left;strokeColor=none" value="&lt;p style=&quot;line-height: 100%;&quot;&gt;Interrupt&lt;br&gt;CollectorIfc&lt;br&gt;&lt;i&gt;Interface&lt;/i&gt;&lt;br&gt;...&lt;/p&gt;" vertex="1">
                    <mxGeometry as="geometry" height="830.0" width="560.0" x="10.0" y="10.0"/>
                </mxCell>
                <mxCell id="63a7be99-7ed6-4d6c-a4f0-c907e5b93140" parent="21fd1ef3-2a6f-4081-a8e0-63668969abfd" style="shape=document;size=0.012345679012345678;rounded=0;whiteSpace=wrap;html=1;fillColor=#00CCCC;fontSize=9;fontColor=#000000;align=left;strokeColor=none" value="&lt;p style=&quot;line-height: 100%;&quot;&gt;Interrupt&lt;br&gt;CollectorBlk&lt;br&gt;&lt;i&gt;Block&lt;/i&gt;&lt;br&gt;...&lt;/p&gt;" vertex="1">
                    <mxGeometry as="geometry" height="810.0" width="470.0" x="90.0" y="20.0"/>
                </mxCell>
                <mxCell id="f4120c22-7c31-453c-b8bd-1c843a5c2a10" parent="21fd1ef3-2a6f-4081-a8e0-63668969abfd" style="rounded=0;whiteSpace=wrap;html=1;fillColor=#F58828;fontSize=9;fontColor=#000000;align=left;strokeColor=none" value="&lt;p style=&quot;line-height: 100%;&quot;&gt;&lt;br&gt;InterruptMaskReg&lt;br&gt;&lt;i&gt;Register&lt;/i&gt;&lt;/p&gt;" vertex="1">
                    <mxGeometry as="geometry" height="290.0" width="380.0" x="170.0" y="30.0"/>
                </mxCell>
                <mxCell id="8eed9e00-4605-4d9e-b316-46d1f1dd2ba3" parent="21fd1ef3-2a6f-4081-a8e0-63668969abfd" style="rounded=0;whiteSpace=wrap;html=1;fillColor=#F19C99;fontSize=9;fontColor=#000000;align=left;strokeColor=none" value="&lt;p style=&quot;line-height: 100%;&quot;&gt;Mask0&lt;br&gt;&lt;i&gt;Enum&lt;/i&gt;&lt;/p&gt;" vertex="1">
                    <mxGeometry as="geometry" height="60.0" width="290.0" x="250.0" y="40.0"/>
                </mxCell>
                <mxCell id="717a2992-e891-447d-81ad-0841da2d4226" parent="21fd1ef3-2a6f-4081-a8e0-63668969abfd" style="fillColor=#FFFFFF;arrowSize=0.05;shape=doubleArrow;rounded=0;whiteSpace=wrap;html=1;fontSize=9;arrowWidth=1" value="&lt;p style=&quot;line-height: 100%;&quot;&gt;InterruptDisabled, &lt;br&gt;InterruptEnabled&lt;br&gt;&lt;i&gt;Values&lt;/i&gt;&lt;/p&gt;" vertex="1">
                    <mxGeometry as="geometry" height="40.0" width="160.0" x="330.0" y="50.0"/>
                </mxCell>
                <mxCell id="f8ba6243-3a53-419a-852f-44d03f05399d" parent="21fd1ef3-2a6f-4081-a8e0-63668969abfd" style="fillColor=#FFFFFF;rounded=0;whiteSpace=wrap;html=1;fontSize=9;arrowWidth=1" value="&lt;p style=&quot;line-height: 100%;&quot;&gt;Reg&lt;/p&gt;" vertex="1">
                    <mxGeometry as="geometry" height="40.0" width="20.0" x="490.0" y="50.0"/>
                </mxCell>
                <mxCell id="0a94866c-a665-4536-9533-80035b0918a3" parent="21fd1ef3-2a6f-4081-a8e0-63668969abfd" style="fillColor=#FFFFFF;arrowSize=0.5;shape=singleArrow;rounded=0;whiteSpace=wrap;html=1;fontSize=9;arrowWidth=1" vertex="1">
                    <mxGeometry as="geometry" height="40.0" width="20.0" x="510.0" y="50.0"/>
                </mxCell>
                <mxCell id="e2beca6b-40b6-4e5d-a292-292b1935b68a" parent="21fd1ef3-2a6f-4081-a8e0-63668969abfd" style="rounded=0;whiteSpace=wrap;html=1;fillColor=#F19C99;fontSize=9;fontColor=#000000;align=left;strokeColor=none" value="&lt;p style=&quot;line-height: 100%;&quot;&gt;Mask1&lt;br&gt;&lt;i&gt;Enum&lt;/i&gt;&lt;/p&gt;" vertex="1">
                    <mxGeometry as="geometry" height="60.0" width="290.0" x="250.0" y="110.0"/>
                </mxCell>
                <mxCell id="ac95e99f-5a37-4dba-ab6c-bc57eece0114" parent="21fd1ef3-2a6f-4081-a8e0-63668969abfd" style="fillColor=#FFFFFF;arrowSize=0.05;shape=doubleArrow;rounded=0;whiteSpace=wrap;html=1;fontSize=9;arrowWidth=1" value="&lt;p style=&quot;line-height: 100%;&quot;&gt;InterruptDisabled, &lt;br&gt;InterruptEnabled&lt;br&gt;&lt;i&gt;Values&lt;/i&gt;&lt;/p&gt;" vertex="1">
                    <mxGeometry as="geometry" height="40.0" width="160.0" x="330.0" y="120.0"/>
                </mxCell>
                <mxCell id="55c526c5-8ea3-4e32-a958-6b4c42ff23fd" parent="21fd1ef3-2a6f-4081-a8e0-63668969abfd" style="fillColor=#FFFFFF;rounded=0;whiteSpace=wrap;html=1;fontSize=9;arrowWidth=1" value="&lt;p style=&quot;line-height: 100%;&quot;&gt;Reg&lt;/p&gt;" vertex="1">
                    <mxGeometry as="geometry" height="40.0" width="20.0" x="490.0" y="120.0"/>
                </mxCell>
                <mxCell id="378932d7-3615-49ac-b4f2-74b59f1dff41" parent="21fd1ef3-2a6f-4081-a8e0-63668969abfd" style="fillColor=#FFFFFF;arrowSize=0.5;shape=singleArrow;rounded=0;whiteSpace=wrap;html=1;fontSize=9;arrowWidth=1" vertex="1">
                    <mxGeometry as="geometry" height="40.0" width="20.0" x="510.0" y="120.0"/>
                </mxCell>
                <mxCell id="8f6f8906-2864-4af5-b028-fe4532f7f2da" parent="21fd1ef3-2a6f-4081-a8e0-63668969abfd" style="rounded=0;whiteSpace=wrap;html=1;fillColor=#F19C99;fontSize=9;fontColor=#000000;align=left;strokeColor=none" value="&lt;p style=&quot;line-height: 100%;&quot;&gt;Mask2&lt;br&gt;&lt;i&gt;Enum&lt;/i&gt;&lt;/p&gt;" vertex="1">
                    <mxGeometry as="geometry" height="60.0" width="290.0" x="250.0" y="180.0"/>
                </mxCell>
                <mxCell id="3992bb1b-d3d5-4aa4-b698-b47be68ae303" parent="21fd1ef3-2a6f-4081-a8e0-63668969abfd" style="fillColor=#FFFFFF;arrowSize=0.05;shape=doubleArrow;rounded=0;whiteSpace=wrap;html=1;fontSize=9;arrowWidth=1" value="&lt;p style=&quot;line-height: 100%;&quot;&gt;InterruptDisabled, &lt;br&gt;InterruptEnabled&lt;br&gt;&lt;i&gt;Values&lt;/i&gt;&lt;/p&gt;" vertex="1">
                    <mxGeometry as="geometry" height="40.0" width="160.0" x="330.0" y="190.0"/>
                </mxCell>
                <mxCell id="4433a259-ea5d-40b9-96c4-e300c5e2578a" parent="21fd1ef3-2a6f-4081-a8e0-63668969abfd" style="fillColor=#FFFFFF;rounded=0;whiteSpace=wrap;html=1;fontSize=9;arrowWidth=1" value="&lt;p style=&quot;line-height: 100%;&quot;&gt;Reg&lt;/p&gt;" vertex="1">
                    <mxGeometry as="geometry" height="40.0" width="20.0" x="490.0" y="190.0"/>
                </mxCell>
                <mxCell id="4d0365bb-bc9e-4a38-8cb7-0f74856bd523" parent="21fd1ef3-2a6f-4081-a8e0-63668969abfd" style="fillColor=#FFFFFF;arrowSize=0.5;shape=singleArrow;rounded=0;whiteSpace=wrap;html=1;fontSize=9;arrowWidth=1" vertex="1">
                    <mxGeometry as="geometry" height="40.0" width="20.0" x="510.0" y="190.0"/>
                </mxCell>
                <mxCell id="71dcf307-9eae-4d34-861e-d50c346f4f32" parent="21fd1ef3-2a6f-4081-a8e0-63668969abfd" style="rounded=0;whiteSpace=wrap;html=1;fillColor=#F19C99;fontSize=9;fontColor=#000000;align=left;strokeColor=none" value="&lt;p style=&quot;line-height: 100%;&quot;&gt;Mask3&lt;br&gt;&lt;i&gt;Enum&lt;/i&gt;&lt;/p&gt;" vertex="1">
                    <mxGeometry as="geometry" height="60.0" width="290.0" x="250.0" y="250.0"/>
                </mxCell>
                <mxCell id="69e63b8f-bdba-4977-9afb-9405eb9c7020" parent="21fd1ef3-2a6f-4081-a8e0-63668969abfd" style="fillColor=#FFFFFF;arrowSize=0.05;shape=doubleArrow;rounded=0;whiteSpace=wrap;html=1;fontSize=9;arrowWidth=1" value="&lt;p style=&quot;line-height: 100%;&quot;&gt;InterruptDisabled, &lt;br&gt;InterruptEnabled&lt;br&gt;&lt;i&gt;Values&lt;/i&gt;&lt;/p&gt;" vertex="1">
                    <mxGeometry as="geometry" height="40.0" width="160.0" x="330.0" y="260.0"/>
                </mxCell>
                <mxCell id="38de2009-1620-41e2-89ef-89b3db8fa261" parent="21fd1ef3-2a6f-4081-a8e0-63668969abfd" style="fillColor=#FFFFFF;rounded=0;whiteSpace=wrap;html=1;fontSize=9;arrowWidth=1" value="&lt;p style=&quot;line-height: 100%;&quot;&gt;Reg&lt;/p&gt;" vertex="1">
                    <mxGeometry as="geometry" height="40.0" width="20.0" x="490.0" y="260.0"/>
                </mxCell>
                <mxCell id="0adaedef-11e3-400f-992a-879d8ae1f00a" parent="21fd1ef3-2a6f-4081-a8e0-63668969abfd" style="fillColor=#FFFFFF;arrowSize=0.5;shape=singleArrow;rounded=0;whiteSpace=wrap;html=1;fontSize=9;arrowWidth=1" vertex="1">
                    <mxGeometry as="geometry" height="40.0" width="20.0" x="510.0" y="260.0"/>
                </mxCell>
                <mxCell id="448b94b2-a77f-4a8d-bdc8-bc8e28404b39" parent="21fd1ef3-2a6f-4081-a8e0-63668969abfd" style="rounded=0;whiteSpace=wrap;html=1;fillColor=#F58828;fontSize=9;fontColor=#000000;align=left;strokeColor=none" value="&lt;p style=&quot;line-height: 100%;&quot;&gt;Interrupt&lt;br&gt;RequestReg&lt;br&gt;&lt;i&gt;Register&lt;/i&gt;&lt;/p&gt;" vertex="1">
                    <mxGeometry as="geometry" height="490.0" width="380.0" x="170.0" y="330.0"/>
                </mxCell>
                <mxCell id="e1824797-1c1b-41da-a1d8-bc8b804b6361" parent="21fd1ef3-2a6f-4081-a8e0-63668969abfd" style="rounded=0;whiteSpace=wrap;html=1;fillColor=#F19C99;fontSize=9;fontColor=#000000;align=left;strokeColor=none" value="&lt;p style=&quot;line-height: 100%;&quot;&gt;Request0&lt;br&gt;&lt;i&gt;Enum&lt;/i&gt;&lt;/p&gt;" vertex="1">
                    <mxGeometry as="geometry" height="100.0" width="290.0" x="250.0" y="340.0"/>
                </mxCell>
                <mxCell id="a4b87280-63f5-45ec-9ac6-70fd042897b1" parent="21fd1ef3-2a6f-4081-a8e0-63668969abfd" style="fillColor=#FFFFFF;arrowSize=0.05;shape=singleArrow;direction=west;rounded=0;whiteSpace=wrap;html=1;fontSize=9;arrowWidth=1" value="&lt;p style=&quot;line-height: 100%;&quot;&gt;NotPending, Pending&lt;br&gt;&lt;i&gt;Values&lt;/i&gt;&lt;/p&gt;" vertex="1">
                    <mxGeometry as="geometry" height="40.0" width="200.0" x="330.0" y="350.0"/>
                </mxCell>
                <mxCell id="6a668677-39fd-4c80-b7c8-ad0d04200fc3" parent="21fd1ef3-2a6f-4081-a8e0-63668969abfd" style="fillColor=#FFFFFF;arrowSize=0.05;shape=singleArrow;rounded=0;whiteSpace=wrap;html=1;fontSize=9;arrowWidth=1" value="&lt;p style=&quot;line-height: 100%;&quot;&gt;NotConfirmed, Confirmed&lt;br&gt;&lt;i&gt;Values&lt;/i&gt;&lt;/p&gt;" vertex="1">
                    <mxGeometry as="geometry" height="40.0" width="200.0" x="330.0" y="390.0"/>
                </mxCell>
                <mxCell id="c17eedda-bd0a-4bde-b968-2ccebaa7920a" parent="21fd1ef3-2a6f-4081-a8e0-63668969abfd" style="rounded=0;whiteSpace=wrap;html=1;fillColor=#F19C99;fontSize=9;fontColor=#000000;align=left;strokeColor=none" value="&lt;p style=&quot;line-height: 100%;&quot;&gt;Request1&lt;br&gt;&lt;i&gt;Enum&lt;/i&gt;&lt;/p&gt;" vertex="1">
                    <mxGeometry as="geometry" height="100.0" width="290.0" x="250.0" y="450.0"/>
                </mxCell>
                <mxCell id="7b3dbc32-5812-4dbd-a3a6-e5f83aa461b5" parent="21fd1ef3-2a6f-4081-a8e0-63668969abfd" style="fillColor=#FFFFFF;arrowSize=0.05;shape=singleArrow;direction=west;rounded=0;whiteSpace=wrap;html=1;fontSize=9;arrowWidth=1" value="&lt;p style=&quot;line-height: 100%;&quot;&gt;NotPending, Pending&lt;br&gt;&lt;i&gt;Values&lt;/i&gt;&lt;/p&gt;" vertex="1">
                    <mxGeometry as="geometry" height="40.0" width="200.0" x="330.0" y="460.0"/>
                </mxCell>
                <mxCell id="717ebd49-23fb-44dd-83fd-6803d8984c35" parent="21fd1ef3-2a6f-4081-a8e0-63668969abfd" style="fillColor=#FFFFFF;arrowSize=0.05;shape=singleArrow;rounded=0;whiteSpace=wrap;html=1;fontSize=9;arrowWidth=1" value="&lt;p style=&quot;line-height: 100%;&quot;&gt;NotConfirmed, Confirmed&lt;br&gt;&lt;i&gt;Values&lt;/i&gt;&lt;/p&gt;" vertex="1">
                    <mxGeometry as="geometry" height="40.0" width="200.0" x="330.0" y="500.0"/>
                </mxCell>
                <mxCell id="15da292f-b3dc-43d1-96e3-8aa6b4af1924" parent="21fd1ef3-2a6f-4081-a8e0-63668969abfd" style="rounded=0;whiteSpace=wrap;html=1;fillColor=#F19C99;fontSize=9;fontColor=#000000;align=left;strokeColor=none" value="&lt;p style=&quot;line-height: 100%;&quot;&gt;Request2&lt;br&gt;&lt;i&gt;Enum&lt;/i&gt;&lt;/p&gt;" vertex="1">
                    <mxGeometry as="geometry" height="100.0" width="290.0" x="250.0" y="560.0"/>
                </mxCell>
                <mxCell id="17d80ec1-fe23-475d-a9b2-e97a1121c17f" parent="21fd1ef3-2a6f-4081-a8e0-63668969abfd" style="fillColor=#FFFFFF;arrowSize=0.05;shape=singleArrow;direction=west;rounded=0;whiteSpace=wrap;html=1;fontSize=9;arrowWidth=1" value="&lt;p style=&quot;line-height: 100%;&quot;&gt;NotPending, Pending&lt;br&gt;&lt;i&gt;Values&lt;/i&gt;&lt;/p&gt;" vertex="1">
                    <mxGeometry as="geometry" height="40.0" width="200.0" x="330.0" y="570.0"/>
                </mxCell>
                <mxCell id="01d0d110-15d0-494a-8a9a-0f1b916e969a" parent="21fd1ef3-2a6f-4081-a8e0-63668969abfd" style="fillColor=#FFFFFF;arrowSize=0.05;shape=singleArrow;rounded=0;whiteSpace=wrap;html=1;fontSize=9;arrowWidth=1" value="&lt;p style=&quot;line-height: 100%;&quot;&gt;NotConfirmed, Confirmed&lt;br&gt;&lt;i&gt;Values&lt;/i&gt;&lt;/p&gt;" vertex="1">
                    <mxGeometry as="geometry" height="40.0" width="200.0" x="330.0" y="610.0"/>
                </mxCell>
                <mxCell id="a15baea8-50eb-4269-b5d5-77c774da98a1" parent="21fd1ef3-2a6f-4081-a8e0-63668969abfd" style="rounded=0;whiteSpace=wrap;html=1;fillColor=#F19C99;fontSize=9;fontColor=#000000;align=left;strokeColor=none" value="&lt;p style=&quot;line-height: 100%;&quot;&gt;Request3&lt;br&gt;&lt;i&gt;Enum&lt;/i&gt;&lt;/p&gt;" vertex="1">
                    <mxGeometry as="geometry" height="100.0" width="290.0" x="250.0" y="670.0"/>
                </mxCell>
                <mxCell id="b6551e2e-694b-46a1-b064-d2b75119bec9" parent="21fd1ef3-2a6f-4081-a8e0-63668969abfd" style="fillColor=#FFFFFF;arrowSize=0.05;shape=singleArrow;direction=west;rounded=0;whiteSpace=wrap;html=1;fontSize=9;arrowWidth=1" value="&lt;p style=&quot;line-height: 100%;&quot;&gt;NotPending, Pending&lt;br&gt;&lt;i&gt;Values&lt;/i&gt;&lt;/p&gt;" vertex="1">
                    <mxGeometry as="geometry" height="40.0" width="200.0" x="330.0" y="680.0"/>
                </mxCell>
                <mxCell id="1e2253a5-2162-4fe5-b2ea-b5fb5a736f07" parent="21fd1ef3-2a6f-4081-a8e0-63668969abfd" style="fillColor=#FFFFFF;arrowSize=0.05;shape=singleArrow;rounded=0;whiteSpace=wrap;html=1;fontSize=9;arrowWidth=1" value="&lt;p style=&quot;line-height: 100%;&quot;&gt;NotConfirmed, Confirmed&lt;br&gt;&lt;i&gt;Values&lt;/i&gt;&lt;/p&gt;" vertex="1">
                    <mxGeometry as="geometry" height="40.0" width="200.0" x="330.0" y="720.0"/>
                </mxCell>
                <mxCell id="c84c5534-2e0c-40bf-b278-2262288c45f2" parent="21fd1ef3-2a6f-4081-a8e0-63668969abfd" style="fillColor=#CCCCCC;arrowSize=0.05;shape=singleArrow;rounded=0;whiteSpace=wrap;html=1;fontSize=9;arrowWidth=1" value="&lt;p style=&quot;line-height: 100%;&quot;&gt;WTrans&lt;br&gt;&lt;i&gt;Pulse&lt;/i&gt;&lt;/p&gt;" vertex="1">
                    <mxGeometry as="geometry" height="30.0" width="200.0" x="330.0" y="780.0"/>
                </mxCell>
                <mxCell id="727cc077-87af-4ecc-9596-fd3f5d1bf06d" parent="21fd1ef3-2a6f-4081-a8e0-63668969abfd" style="fillColor=none;verticalAlign=middle;labelBorderColor=none;fontSize=20;align=center;fontStyle=1;strokeColor=none;fontColor=#F58828;rounded=0;whiteSpace=wrap;html=1" value="&lt;p style=&quot;line-height: 100%;&quot;&gt;HxS&lt;/p&gt;" vertex="1">
                    <mxGeometry as="geometry" height="30.0" width="50.0" x="10.0" y="810.0"/>
                </mxCell>
            </root>
        </mxGraphModel>
    </diagram>
    <diagram id="a47666b9-747d-470f-9c14-6ad77a0d11da" name="Slice1">
        <mxGraphModel arrows="1" connect="1" fold="1" grid="1" gridSize="10" guides="1" math="0" page="1" pageScale="1" shadow="0" tooltips="1">
            <root>
                <mxCell id="0"/>
                <mxCell id="1" parent="0"/>
                <mxCell id="f09a74df-5f28-4516-91cf-33db4ac047f9" parent="0" value="Foreground"/>
                <mxCell id="bd92b122-bd7d-4d8b-b8cf-640830a24d01" parent="f09a74df-5f28-4516-91cf-33db4ac047f9" style="shape=document;size=0.018867924528301886;flipV=1;flipH=1;rounded=0;whiteSpace=wrap;html=1;fillColor=#253F8E;fontSize=9;fontColor=#FFFFFF;align=left;strokeColor=none" value="&lt;p style=&quot;line-height: 100%;&quot;&gt;...&lt;br&gt;Interrupt&lt;br&gt;CollectorIfc&lt;br&gt;&lt;i&gt;Interface&lt;/i&gt;&lt;/p&gt;" vertex="1">
                    <mxGeometry as="geometry" height="530.0" width="560.0" x="10.0" y="10.0"/>
                </mxCell>
                <mxCell id="4ea00c6c-95fc-4167-a89c-76d5669ca5f3" parent="f09a74df-5f28-4516-91cf-33db4ac047f9" style="shape=document;size=0.0196078431372549;flipV=1;flipH=1;rounded=0;whiteSpace=wrap;html=1;fillColor=#00CCCC;fontSize=9;fontColor=#000000;align=left;strokeColor=none" value="&lt;p style=&quot;line-height: 100%;&quot;&gt;...&lt;br&gt;Interrupt&lt;br&gt;CollectorBlk&lt;br&gt;&lt;i&gt;Block&lt;/i&gt;&lt;/p&gt;" vertex="1">
                    <mxGeometry as="geometry" height="510.0" width="470.0" x="90.0" y="20.0"/>
                </mxCell>
                <mxCell id="26cc5ecf-a307-4973-90dd-32eb889cb79c" parent="f09a74df-5f28-4516-91cf-33db4ac047f9" style="rounded=0;whiteSpace=wrap;html=1;fillColor=#F58828;fontSize=9;fontColor=#000000;align=left;strokeColor=none" value="&lt;p style=&quot;line-height: 100%;&quot;&gt;Interrupt&lt;br&gt;ServiceReg&lt;br&gt;&lt;i&gt;Register&lt;/i&gt;&lt;/p&gt;" vertex="1">
                    <mxGeometry as="geometry" height="490.0" width="380.0" x="170.0" y="30.0"/>
                </mxCell>
                <mxCell id="12a572f2-be5a-4965-b7fb-0b1bc5c2f309" parent="f09a74df-5f28-4516-91cf-33db4ac047f9" style="rounded=0;whiteSpace=wrap;html=1;fillColor=#F19C99;fontSize=9;fontColor=#000000;align=left;strokeColor=none" value="&lt;p style=&quot;line-height: 100%;&quot;&gt;Service0&lt;br&gt;&lt;i&gt;Enum&lt;/i&gt;&lt;/p&gt;" vertex="1">
                    <mxGeometry as="geometry" height="100.0" width="290.0" x="250.0" y="40.0"/>
                </mxCell>
                <mxCell id="53e5e846-caf1-4dca-a9cc-4133526a4ce9" parent="f09a74df-5f28-4516-91cf-33db4ac047f9" style="fillColor=#FFFFFF;arrowSize=0.05;shape=singleArrow;direction=west;rounded=0;whiteSpace=wrap;html=1;fontSize=9;arrowWidth=1" value="&lt;p style=&quot;line-height: 100%;&quot;&gt;Ended, InProcess&lt;br&gt;&lt;i&gt;Values&lt;/i&gt;&lt;/p&gt;" vertex="1">
                    <mxGeometry as="geometry" height="40.0" width="200.0" x="330.0" y="50.0"/>
                </mxCell>
                <mxCell id="951a75e8-9247-4812-bc7a-efac61f475ca" parent="f09a74df-5f28-4516-91cf-33db4ac047f9" style="fillColor=#FFFFFF;arrowSize=0.05;shape=singleArrow;rounded=0;whiteSpace=wrap;html=1;fontSize=9;arrowWidth=1" value="&lt;p style=&quot;line-height: 100%;&quot;&gt;NotConfirmed, Confirmed&lt;br&gt;&lt;i&gt;Values&lt;/i&gt;&lt;/p&gt;" vertex="1">
                    <mxGeometry as="geometry" height="40.0" width="200.0" x="330.0" y="90.0"/>
                </mxCell>
                <mxCell id="e185d11e-daad-4783-a6cf-5edf6065261d" parent="f09a74df-5f28-4516-91cf-33db4ac047f9" style="rounded=0;whiteSpace=wrap;html=1;fillColor=#F19C99;fontSize=9;fontColor=#000000;align=left;strokeColor=none" value="&lt;p style=&quot;line-height: 100%;&quot;&gt;Service1&lt;br&gt;&lt;i&gt;Enum&lt;/i&gt;&lt;/p&gt;" vertex="1">
                    <mxGeometry as="geometry" height="100.0" width="290.0" x="250.0" y="150.0"/>
                </mxCell>
                <mxCell id="8bb10e09-75aa-4473-af1a-a2563eecd9d8" parent="f09a74df-5f28-4516-91cf-33db4ac047f9" style="fillColor=#FFFFFF;arrowSize=0.05;shape=singleArrow;direction=west;rounded=0;whiteSpace=wrap;html=1;fontSize=9;arrowWidth=1" value="&lt;p style=&quot;line-height: 100%;&quot;&gt;Ended, InProcess&lt;br&gt;&lt;i&gt;Values&lt;/i&gt;&lt;/p&gt;" vertex="1">
                    <mxGeometry as="geometry" height="40.0" width="200.0" x="330.0" y="160.0"/>
                </mxCell>
                <mxCell id="ec33304f-8faa-4321-bf8b-c066ac3aaa39" parent="f09a74df-5f28-4516-91cf-33db4ac047f9" style="fillColor=#FFFFFF;arrowSize=0.05;shape=singleArrow;rounded=0;whiteSpace=wrap;html=1;fontSize=9;arrowWidth=1" value="&lt;p style=&quot;line-height: 100%;&quot;&gt;NotConfirmed, Confirmed&lt;br&gt;&lt;i&gt;Values&lt;/i&gt;&lt;/p&gt;" vertex="1">
                    <mxGeometry as="geometry" height="40.0" width="200.0" x="330.0" y="200.0"/>
                </mxCell>
                <mxCell id="27a0da0a-dfca-4ce9-94a0-064a9b2a09c0" parent="f09a74df-5f28-4516-91cf-33db4ac047f9" style="rounded=0;whiteSpace=wrap;html=1;fillColor=#F19C99;fontSize=9;fontColor=#000000;align=left;strokeColor=none" value="&lt;p style=&quot;line-height: 100%;&quot;&gt;Service2&lt;br&gt;&lt;i&gt;Enum&lt;/i&gt;&lt;/p&gt;" vertex="1">
                    <mxGeometry as="geometry" height="100.0" width="290.0" x="250.0" y="260.0"/>
                </mxCell>
                <mxCell id="b8420979-c2a4-44c4-8878-655d38257bf5" parent="f09a74df-5f28-4516-91cf-33db4ac047f9" style="fillColor=#FFFFFF;arrowSize=0.05;shape=singleArrow;direction=west;rounded=0;whiteSpace=wrap;html=1;fontSize=9;arrowWidth=1" value="&lt;p style=&quot;line-height: 100%;&quot;&gt;Ended, InProcess&lt;br&gt;&lt;i&gt;Values&lt;/i&gt;&lt;/p&gt;" vertex="1">
                    <mxGeometry as="geometry" height="40.0" width="200.0" x="330.0" y="270.0"/>
                </mxCell>
                <mxCell id="748a0f4c-8d04-4c0f-ad33-e0a690ffe08f" parent="f09a74df-5f28-4516-91cf-33db4ac047f9" style="fillColor=#FFFFFF;arrowSize=0.05;shape=singleArrow;rounded=0;whiteSpace=wrap;html=1;fontSize=9;arrowWidth=1" value="&lt;p style=&quot;line-height: 100%;&quot;&gt;NotConfirmed, Confirmed&lt;br&gt;&lt;i&gt;Values&lt;/i&gt;&lt;/p&gt;" vertex="1">
                    <mxGeometry as="geometry" height="40.0" width="200.0" x="330.0" y="310.0"/>
                </mxCell>
                <mxCell id="462545d8-266b-4df6-b966-ab9d9c510bd6" parent="f09a74df-5f28-4516-91cf-33db4ac047f9" style="rounded=0;whiteSpace=wrap;html=1;fillColor=#F19C99;fontSize=9;fontColor=#000000;align=left;strokeColor=none" value="&lt;p style=&quot;line-height: 100%;&quot;&gt;Service3&lt;br&gt;&lt;i&gt;Enum&lt;/i&gt;&lt;/p&gt;" vertex="1">
                    <mxGeometry as="geometry" height="100.0" width="290.0" x="250.0" y="370.0"/>
                </mxCell>
                <mxCell id="23d4a409-73de-44d6-a65f-dd0ed6a317e5" parent="f09a74df-5f28-4516-91cf-33db4ac047f9" style="fillColor=#FFFFFF;arrowSize=0.05;shape=singleArrow;direction=west;rounded=0;whiteSpace=wrap;html=1;fontSize=9;arrowWidth=1" value="&lt;p style=&quot;line-height: 100%;&quot;&gt;Ended, InProcess&lt;br&gt;&lt;i&gt;Values&lt;/i&gt;&lt;/p&gt;" vertex="1">
                    <mxGeometry as="geometry" height="40.0" width="200.0" x="330.0" y="380.0"/>
                </mxCell>
                <mxCell id="5f91e706-f190-49d7-966b-dfb824a76029" parent="f09a74df-5f28-4516-91cf-33db4ac047f9" style="fillColor=#FFFFFF;arrowSize=0.05;shape=singleArrow;rounded=0;whiteSpace=wrap;html=1;fontSize=9;arrowWidth=1" value="&lt;p style=&quot;line-height: 100%;&quot;&gt;NotConfirmed, Confirmed&lt;br&gt;&lt;i&gt;Values&lt;/i&gt;&lt;/p&gt;" vertex="1">
                    <mxGeometry as="geometry" height="40.0" width="200.0" x="330.0" y="420.0"/>
                </mxCell>
                <mxCell id="dabcb908-81bf-4a78-8b98-c40262cb3523" parent="f09a74df-5f28-4516-91cf-33db4ac047f9" style="fillColor=#CCCCCC;arrowSize=0.05;shape=singleArrow;rounded=0;whiteSpace=wrap;html=1;fontSize=9;arrowWidth=1" value="&lt;p style=&quot;line-height: 100%;&quot;&gt;WTrans&lt;br&gt;&lt;i&gt;Pulse&lt;/i&gt;&lt;/p&gt;" vertex="1">
                    <mxGeometry as="geometry" height="30.0" width="200.0" x="330.0" y="480.0"/>
                </mxCell>
                <mxCell id="55aeef9a-ca5c-4071-b403-a69fae660ed2" parent="f09a74df-5f28-4516-91cf-33db4ac047f9" style="fillColor=none;verticalAlign=middle;labelBorderColor=none;fontSize=20;align=center;fontStyle=1;strokeColor=none;fontColor=#F58828;rounded=0;whiteSpace=wrap;html=1" value="&lt;p style=&quot;line-height: 100%;&quot;&gt;HxS&lt;/p&gt;" vertex="1">
                    <mxGeometry as="geometry" height="30.0" width="50.0" x="10.0" y="510.0"/>
                </mxCell>
            </root>
        </mxGraphModel>
    </diagram>
    <diagram id="e87e9eb1-d07a-4b89-8b77-8ced999b2c23" name="Comments">
        <mxGraphModel arrows="1" connect="1" fold="1" grid="1" gridSize="10" guides="1" math="0" page="1" pageScale="1" shadow="0" tooltips="1">
            <root>
                <mxCell id="0"/>
                <mxCell id="1" parent="0"/>
                <mxCell id="2dfc1bf7-de55-4eee-8000-45c1d3b2cc14" parent="0" value="Foreground"/>
                <mxCell id="435ea38c-4877-46bf-a8fc-db18b00048f1" parent="2dfc1bf7-de55-4eee-8000-45c1d3b2cc14" style="fillColor=none;verticalAlign=middle;labelBorderColor=none;fontSize=20;align=center;fontStyle=1;strokeColor=none;fontColor=#000000;rounded=0;whiteSpace=wrap;html=1" value="&lt;p style=&quot;line-height: 100%;&quot;&gt;Copyright (C) 2024 Eccelerators GmbH&#10;&#10;This code was generated by:&#10;&#10;HxS Compiler v0.0.0-0000000&#10;Docs Extension for HxS v0.0.0-0000000&#10;&#10;Further information at https://eccelerators.com/hxs&#10;&#10;Changes to this file may cause incorrect behavior and will be lost if the&#10;code is regenerated.&#10;&#10;&#10;&lt;/p&gt;" vertex="1">
                    <mxGeometry as="geometry" height="500.0" width="1000.0" x="10.0" y="10.0"/>
                </mxCell>
            </root>
        </mxGraphModel>
    </diagram>
</mxfile>
